<svg xmlns="http://www.w3.org/2000/svg" viewBox="0 0 512 512">
  <defs>
    <linearGradient id="g" x1="0" y1="0" x2="1" y2="1">
      <stop offset="0" stop-color="#7c5cff"/>
      <stop offset="1" stop-color="#2ee9a7"/>
    </linearGradient>
    <filter id="s" x="-40%" y="-40%" width="180%" height="180%">
      <feDropShadow dx="0" dy="18" stdDeviation="18" flood-color="#000" flood-opacity="0.35"/>
    </filter>
  </defs>
  <rect x="56" y="56" width="400" height="400" rx="110" fill="url(#g)" filter="url(#s)"/>
  <g fill="#0b1020" opacity="0.92">
    <path d="M150 344V168h54l52 122 52-122h54v176h-40V230l-46 114h-40l-46-114v114z"/>
    <path d="M256 132c-62 0-112 50-112 112s50 112 112 112 112-50 112-112-50-112-112-112zm0 42c39 0 70 31 70 70s-31 70-70 70-70-31-70-70 31-70 70-70z" opacity="0.18"/>
  </g>
</svg>

