<?xml version="1.0" encoding="UTF-8"?>
<svg xmlns="http://www.w3.org/2000/svg" width="512" height="512" viewBox="0 0 512 512" role="img" aria-label="Token Tumbler icon">
  <defs>
    <linearGradient id="g0" x1="0" x2="1" y1="0" y2="1">
      <stop offset="0" stop-color="#7c5cff"/>
      <stop offset="1" stop-color="#36d399"/>
    </linearGradient>
    <radialGradient id="g1" cx="30%" cy="20%" r="80%">
      <stop offset="0" stop-color="#ffffff" stop-opacity="0.22"/>
      <stop offset="1" stop-color="#ffffff" stop-opacity="0"/>
    </radialGradient>
    <filter id="shadow" x="-20%" y="-20%" width="140%" height="140%">
      <feDropShadow dx="0" dy="16" stdDeviation="18" flood-color="#000000" flood-opacity="0.55"/>
    </filter>
  </defs>
  <rect x="56" y="56" width="400" height="400" rx="96" fill="#0f1020"/>
  <rect x="56" y="56" width="400" height="400" rx="96" fill="url(#g1)"/>
  <g filter="url(#shadow)">
    <rect x="118" y="136" width="276" height="248" rx="44" fill="rgba(255,255,255,0.06)" stroke="rgba(255,255,255,0.16)" stroke-width="4"/>
    <rect x="146" y="166" width="220" height="124" rx="30" fill="rgba(0,0,0,0.22)" stroke="rgba(255,255,255,0.14)" stroke-width="4"/>
    <g>
      <rect x="162" y="184" width="58" height="88" rx="20" fill="rgba(255,255,255,0.10)" stroke="rgba(255,255,255,0.14)" stroke-width="3"/>
      <rect x="227" y="184" width="58" height="88" rx="20" fill="rgba(255,255,255,0.10)" stroke="rgba(255,255,255,0.14)" stroke-width="3"/>
      <rect x="292" y="184" width="58" height="88" rx="20" fill="rgba(255,255,255,0.10)" stroke="rgba(255,255,255,0.14)" stroke-width="3"/>
    </g>
    <g>
      <circle cx="190.5" cy="228" r="18" fill="url(#g0)"/>
      <circle cx="256" cy="228" r="18" fill="url(#g0)"/>
      <circle cx="321.5" cy="228" r="18" fill="url(#g0)"/>
      <path d="M175 228c10-18 31-18 41 0" fill="none" stroke="rgba(0,0,0,0.35)" stroke-width="5" stroke-linecap="round"/>
      <path d="M240 228c10-18 31-18 41 0" fill="none" stroke="rgba(0,0,0,0.35)" stroke-width="5" stroke-linecap="round"/>
      <path d="M305 228c10-18 31-18 41 0" fill="none" stroke="rgba(0,0,0,0.35)" stroke-width="5" stroke-linecap="round"/>
    </g>
    <rect x="146" y="306" width="220" height="30" rx="15" fill="url(#g0)" opacity="0.85"/>
    <g>
      <path d="M392 190c24 0 44 20 44 44s-20 44-44 44" fill="none" stroke="rgba(255,255,255,0.16)" stroke-width="10" stroke-linecap="round"/>
      <circle cx="448" cy="234" r="18" fill="url(#g0)"/>
    </g>
    <g>
      <circle cx="346" cy="350" r="26" fill="rgba(255,255,255,0.08)" stroke="rgba(255,255,255,0.16)" stroke-width="4"/>
      <path d="M333 350h26" stroke="rgba(255,255,255,0.55)" stroke-width="5" stroke-linecap="round"/>
      <path d="M346 337v26" stroke="rgba(255,255,255,0.55)" stroke-width="5" stroke-linecap="round"/>
    </g>
  </g>
  <rect x="56" y="56" width="400" height="400" rx="96" fill="none" stroke="rgba(255,255,255,0.08)" stroke-width="4"/>
</svg>