<svg xmlns="http://www.w3.org/2000/svg" viewBox="0 0 128 128" fill="none">
  <defs>
    <linearGradient id="g" x1="16" y1="16" x2="112" y2="112" gradientUnits="userSpaceOnUse">
      <stop stop-color="#7c5cff"/>
      <stop offset="1" stop-color="#18d6ff"/>
    </linearGradient>
    <filter id="s" x="-20%" y="-20%" width="140%" height="140%">
      <feDropShadow dx="0" dy="10" stdDeviation="8" flood-color="#000" flood-opacity=".35"/>
    </filter>
  </defs>
  <rect x="14" y="14" width="100" height="100" rx="22" fill="#0b0f1a" stroke="rgba(255,255,255,.14)" stroke-width="2"/>
  <rect x="18" y="18" width="92" height="92" rx="20" fill="url(#g)" opacity=".16"/>
  <g filter="url(#s)">
    <rect x="30" y="34" width="68" height="60" rx="14" fill="rgba(15,22,48,.85)" stroke="rgba(255,255,255,.16)" stroke-width="2"/>
    <rect x="38" y="44" width="16" height="40" rx="8" fill="url(#g)"/>
    <rect x="56" y="44" width="16" height="40" rx="8" fill="url(#g)" opacity=".85"/>
    <rect x="74" y="44" width="16" height="40" rx="8" fill="url(#g)" opacity=".7"/>
    <path d="M96 56h10a8 8 0 0 1 0 16H96" stroke="url(#g)" stroke-width="6" stroke-linecap="round"/>
    <circle cx="104" cy="64" r="4" fill="#36f2c2"/>
  </g>
  <path d="M24 104c14 8 30 12 40 12s26-4 40-12" stroke="rgba(231,236,255,.55)" stroke-width="2" stroke-linecap="round"/>
</svg>
